<svg fill="none" xmlns="http://www.w3.org/2000/svg" viewBox="0 0 24 22">
  <g clip-path="url(#a)">
    <path d="M23 .4a8.8 8.8 0 0 0-2 .1c-.6.1-1 .3-1.5.6l-2 1.9a204.7 204.7 0 0 0-7 8.6c-.3 0-.5-.5-.6-1.2l-.2-.9c-.2-1.2-1-.9-1.5-.7a1.9 1.9 0 0 0-1.2 2v1l.4 2c0 .4.2.7.3 1l.6.7.9.3c1 .1 1.6-.2 2.6-1.4L23 .4Z" fill="#0058A2"/>
    <path d="M8.2 21.3c-2.6 0-4.7-.8-6-2.3C.8 17.4 0 15.2 0 12.4c0-3 .7-5.2 2.1-6.8 1.5-1.5 3.6-2.3 6.3-2.3 1.8 0 3.5.3 5 1l-1.9 2.6a8 8 0 0 0-3.1-.6c-3 0-4.6 2-4.6 6 0 2 .4 3.4 1.2 4.4.7 1 1.8 1.5 3.3 1.5A9.6 9.6 0 0 0 13 17v3.2a7.6 7.6 0 0 1-2.1.8l-2.8.3Z" fill="#EB1F40"/>
  </g>
  <defs>
    <clipPath id="a">
      <path fill="#fff" transform="translate(0 .3)" d="M0 0h23v21H0z"/>
    </clipPath>
  </defs>
</svg>
